<svg viewBox="0 0 120 120" xmlns="http://www.w3.org/2000/svg" role="img" aria-label="Pelephone">
  <!-- rounded pebble/triangle shape in Pelephone blue -->
  <path fill="#1626e6" d="M60 8c22 0 33 9 43 27 9 16 13 33 6 49-7 17-27 27-49 27S25 128 14 110C6 96 4 74 12 56 21 34 38 8 60 8Z" transform="translate(0,-2)"/>
  <!-- white stylized 'P' with exclamation dot -->
  <g fill="#fff">
    <path d="M50 34c14-3 30 0 33 15 2 12-7 22-19 22-3 0-6-1-8-2l3 22c0 4-3 7-7 7s-7-3-7-7l-2-50c0-3 2-6 6-7Zm12 13c-4 1-6 4-5 9 1 4 5 6 9 4 3-2 4-6 2-10-1-3-4-4-6-3Z"/>
    <ellipse cx="55" cy="98" rx="9" ry="11"/>
  </g>
</svg>
